<svg width="100" height="100" viewBox="0 0 100 100" fill="none" xmlns="http://www.w3.org/2000/svg">
<rect width="100" height="100" fill="#FF0000"/>
<path fill-rule="evenodd" clip-rule="evenodd" d="M15 18C9.47705 18 5 22.4771 5 28V38H95V28C95 22.4771 90.5229 18 85 18H15ZM95 43H5V63V87H9V63H48V87H52V63H91V87H95V63V43ZM16.8423 35.568C17.8183 35.968 18.9223 36.168 20.1543 36.168C21.4183 36.168 22.5143 35.936 23.4423 35.472C24.3703 35.008 25.0743 34.384 25.5543 33.6C26.0503 32.816 26.2983 31.944 26.2983 30.984C26.2983 29.976 26.0503 29.152 25.5543 28.512C25.0583 27.872 24.4663 27.384 23.7783 27.048C23.1063 26.712 22.2263 26.36 21.1383 25.992C20.0503 25.64 19.2503 25.312 18.7383 25.008C18.2263 24.704 17.9703 24.28 17.9703 23.736C17.9703 23.24 18.1223 22.864 18.4263 22.608C18.7303 22.336 19.1303 22.2 19.6263 22.2C20.2023 22.2 20.6743 22.36 21.0423 22.68C21.4103 22.984 21.6103 23.408 21.6423 23.952H26.0823C26.0023 22.368 25.3943 21.136 24.2583 20.256C23.1223 19.36 21.6263 18.912 19.7703 18.912C17.9463 18.912 16.4663 19.36 15.3303 20.256C14.1943 21.136 13.6263 22.36 13.6263 23.928C13.6263 24.984 13.8743 25.84 14.3703 26.496C14.8663 27.152 15.4583 27.648 16.1463 27.984C16.8343 28.32 17.7223 28.656 18.8103 28.992C19.5623 29.216 20.1383 29.416 20.5383 29.592C20.9543 29.768 21.2983 29.992 21.5703 30.264C21.8583 30.536 22.0023 30.88 22.0023 31.296C22.0023 31.792 21.8263 32.184 21.4743 32.472C21.1223 32.744 20.6423 32.88 20.0343 32.88C19.4423 32.88 18.9623 32.72 18.5943 32.4C18.2263 32.064 18.0103 31.584 17.9463 30.96H13.5783C13.6103 32.064 13.9143 33.008 14.4903 33.792C15.0823 34.576 15.8663 35.168 16.8423 35.568ZM32.9279 36V19.152H28.8239V36H32.9279ZM47.5181 32.64H40.2701L47.5181 22.272V19.152H35.6141V22.512H42.8141L35.6141 32.88V36H47.5181V32.64ZM61.8149 32.64H54.5669L61.8149 22.272V19.152H49.9109V22.512H57.1109L49.9109 32.88V36H61.8149V32.64ZM73.9758 32.832H68.5998V19.152H64.4958V36H73.9758V32.832ZM80.0373 25.848V22.44H86.2533V19.152H75.9333V36H86.2533V32.712H80.0373V29.016H85.5333V25.848H80.0373Z" fill="#D9D9D9"/>
<path d="M25.6678 44.96V59H22.2478V44.96H25.6678ZM31.5663 44.96V59H28.1463V44.96H31.5663ZM37.4647 44.96V59H34.0447V44.96H37.4647ZM43.3631 44.96V59H39.9431V44.96H43.3631ZM49.2616 44.96V59H45.8416V44.96H49.2616ZM55.16 44.96V59H51.74V44.96H55.16ZM61.0584 44.96V59H57.6384V44.96H61.0584ZM66.9569 44.96V59H63.5369V44.96H66.9569ZM72.8553 44.96V59H69.4353V44.96H72.8553ZM78.7538 44.96V59H75.3338V44.96H78.7538Z" fill="#FF0000"/>
</svg>
